<svg xmlns="http://www.w3.org/2000/svg" width="85.143" height="55.995" viewBox="0 0 85.143 55.995">
  <path id="Path_3" data-name="Path 3" d="M-41.839-.559A.563.563,0,0,0-41.323,0h9.116A15.094,15.094,0,0,0-17.071-15.093,15.1,15.1,0,0,0-32.207-30.1h-9.116a.563.563,0,0,0-.516.559Zm2.021-1.29v-26.4h7.267a13.036,13.036,0,0,1,13.33,13.158A13.055,13.055,0,0,1-32.551-1.849ZM-14.276,0h1.2a.7.7,0,0,0,.6-.387L-9.03-8.3H7.4L10.879-.387a.7.7,0,0,0,.6.387H12.6c.473,0,.473-.258.387-.516L-.129-30.444a.55.55,0,0,0-.559-.3H-.817a.6.6,0,0,0-.516.3L-14.577-.516C-14.706-.172-14.577,0-14.276,0Zm6.02-9.976L-.774-27.305h.086L6.665-9.976ZM17.8-.559A.569.569,0,0,0,18.361,0h.817a.569.569,0,0,0,.559-.559V-26.7h.043C40.2.3,40.549.43,40.592.43h.559c.344,0,.688-.172.688-.559V-29.541a.569.569,0,0,0-.559-.559h-.86a.569.569,0,0,0-.559.559V-3.655h-.043L19.178-30.53h-.731a.591.591,0,0,0-.645.559ZM-37.475,25.075a.24.24,0,0,0,.225.175h.275a.241.241,0,0,0,.25-.175l4.5-15.225h.05l4.5,15.225a.241.241,0,0,0,.25.175h.275a.24.24,0,0,0,.225-.175l4.95-17.25c.05-.25-.05-.325-.275-.325h-.6a.32.32,0,0,0-.3.275l-4.175,14.65h-.05L-31.8,7.475a.388.388,0,0,0-.375-.225h-.05a.388.388,0,0,0-.375.225L-37,22.425h-.05l-4.2-14.65a.32.32,0,0,0-.3-.275h-.6c-.225,0-.325.075-.275.325Zm21.55-.4A.331.331,0,0,0-15.6,25H-5.575a.331.331,0,0,0,.325-.325v-.4a.331.331,0,0,0-.325-.325h-9.15v-7.4H-6.8a.331.331,0,0,0,.325-.325V15.8a.331.331,0,0,0-.325-.325h-7.925v-6.9h9.15A.331.331,0,0,0-5.25,8.25V7.825A.331.331,0,0,0-5.575,7.5H-15.6a.331.331,0,0,0-.325.325Zm17.45,0A.331.331,0,0,0,1.85,25h8.825A.291.291,0,0,0,11,24.725v-.45c0-.175-.025-.325-.325-.325H2.7V7.825A.327.327,0,0,0,2.4,7.5H1.85a.331.331,0,0,0-.325.325Zm16.95,0c0,.4.525.325.85.325a.331.331,0,0,0,.325-.325v-8.2l6.5-8.6c.15-.2.05-.375-.2-.375H25.2a.4.4,0,0,0-.325.15l-5.8,7.775-5.7-7.775a.4.4,0,0,0-.325-.15H12.3c-.25,0-.35.175-.2.375L18.475,16.5Zm12.825,0a.3.3,0,0,0,.325.325h.5c.2,0,.375-.075.375-.325V16.45l8.55,8.3a.665.665,0,0,0,.55.25h.8c.325,0,.375-.3.225-.425L33.65,16l8.7-8.075c.15-.15.125-.425-.15-.425h-.7a.571.571,0,0,0-.5.175L32.5,15.6V7.875a.354.354,0,0,0-.375-.375h-.45a.354.354,0,0,0-.375.375Z" transform="translate(42.438 30.745)" fill="#7187a5"/>
</svg>
